<?xml version="1.0" encoding="UTF-8"?>
<!-- Created with Inkscape (http://www.inkscape.org/) -->
<svg width="210mm" height="210mm" version="1.1" viewBox="0 0 210 210" xmlns="http://www.w3.org/2000/svg">
 <g transform="matrix(1.0456 0 0 1.0456 -20.842 -8.124)">
  <path d="m67.303 66.821 113.19 2.2582s1.6757 51.76-59.689 51.52c-56.927-0.22255-53.498-53.778-53.498-53.778z" fill="#fff" stroke-width=".3235"/>
  <path d="m65.666 3.4818s-38.542 57.564-14.236 100.73c24.306 43.17 66.906 38.791 77.73 38.762 25.88-0.0699 51.53-30.864 58.762-17.63 4.7002 8.6011-3.3556 13.695-3.3556 13.695s10.606-4.3 13.513 2.0859c2.9533 6.4872-8.0717 13.15-8.0717 13.15s10.228-3.2024 12.334 5.5323c2.8401 11.779-43.851 46.914-108.73 38.44-49.971-6.527-81.004-36.717-81.004-36.717l6.5041-162.54z" fill="#0a4" stroke-width=".25305"/>
  <path d="m116.85 60.369-1.1543 19.367-9.8759-9.7477-8.5933 8.4651 16.802 14.75v17.828l13.724 1.4108 0.89782-18.341 21.163-9.6194-6.2847-9.6194-13.724 5.8999 1.2826-18.982z" fill="#0a4" stroke-width=".25305"/>
  <g fill="#fff">
   <path d="m99.402 44.44-4.6173-3.8478 4.8738-3.5913 4.3608 4.8738z" stroke-width=".25305"/>
   <path d="m111.2 56.496-5.3868-6.1564 8.2085-2.5652 3.0782 5.3869z" stroke-width=".25305"/>
   <path d="m145.4 29.845-6.6748-5.2445 6.198-5.2445 7.1516 5.7213z" stroke-width=".47032"/>
   <path d="m160.03 16.927-3.0782 3.5913 4.1043 2.8217 3.5913-2.8217z" stroke-width=".25305"/>
   <path d="m189.75 54.789-14.108-3.5913 14.365-2.8217 4.3608-12.826 3.8478 13.339 12.313 2.8217-13.595 4.1043-4.6173 10.004z" stroke-width=".25305"/>
  </g>
 </g>
</svg>
