<?xml version="1.0" encoding="UTF-8"?>
<!-- Created with Inkscape (http://www.inkscape.org/) -->
<svg width="210mm" height="210mm" version="1.1" viewBox="0 0 210 210" xmlns="http://www.w3.org/2000/svg">
 <g transform="matrix(1.0456 0 0 1.0456 -20.842 -8.124)">
  <rect x="19.934" y="7.7697" width="200.84" height="200.84" fill="#374837" stroke-width=".64282"/>
  <path d="m31.411 91.816 177.4 3.5393s2.6263 81.123-93.55 80.747c-89.221-0.34881-83.847-84.286-83.847-84.286z" fill="#fff" stroke-width=".50702"/>
  <path d="m109.06 81.704-1.8092 30.354-15.478-15.278-13.468 13.267 26.333 23.117v27.942l21.509 2.2112 1.4072-28.746 33.168-15.076-9.85-15.076-21.509 9.2469 2.0102-29.751z" fill="#0a4" stroke-width=".3966"/>
  <path d="m165.86 60.394-28.861-7.3464 29.386-5.7722 8.9206-26.237 7.8712 27.287 25.188 5.7722-27.811 8.3959-9.4454 20.465z" fill="#fff" stroke-width=".51764"/>
 </g>
</svg>
